<?xml version="1.0" standalone="no"?>
<!DOCTYPE svg PUBLIC "-//W3C//DTD SVG 20010904//EN"
 "http://www.w3.org/TR/2001/REC-SVG-20010904/DTD/svg10.dtd">
<svg version="1.0" xmlns="http://www.w3.org/2000/svg"
 width="500.000000pt" height="500.000000pt" viewBox="0 0 500.000000 500.000000"
 preserveAspectRatio="xMidYMid meet">
<metadata>
Created by potrace 1.14, written by Peter Selinger 2001-2017
</metadata>
<g transform="translate(0.000000,500.000000) scale(0.100000,-0.100000)"
fill="#000000" stroke="none">
<path d="M0 2500 l0 -2500 2500 0 2500 0 0 2500 0 2500 -2500 0 -2500 0 0
-2500z m1970 613 c0 -862 3 -943 41 -1093 72 -282 226 -403 529 -417 349 -16
539 111 615 411 42 167 45 232 45 1104 l0 832 546 0 546 0 -5 -987 c-3 -856
-6 -1002 -21 -1093 -37 -240 -92 -407 -182 -562 -58 -99 -206 -253 -304 -317
-192 -125 -436 -205 -750 -246 -191 -26 -577 -31 -784 -11 -769 74 -1169 362
-1307 942 -52 220 -52 220 -56 1282 l-4 992 545 0 546 0 0 -837z"/>
</g>
</svg>
